PathFileType	4	(X/Y/Z)	C:\Users\dbl\Desktop\20210112(1)\20210112\bx_y_5_901.trc
DataRate	CameraRate	NumFrames	NumMarkers	Units	OrigDataRate	OrigDataStartFrame	OrigNumFrames
50.00	50.00	       7	43	mm	50.00	1	       527
Frame#	Time	Top.Head			R.Acromium			L.Acromium			Sternum			R.ASIS			L.ASIS			V.Sacral			R.Thigh.Upper			R.Thigh.Front			R.Thigh.Rear			R.Knee.Lat			R.Knee.Med			R.Shank.Upper			R.Shank.Front			R.Shank.Rear			R.Ankle.Lat			R.Midfoot.Lat			R.Toe.Lat			R.Toe.Tip			R.Toe.Med			R.Ankle.Med			R.Midfoot.Sup			R.Heel			L.Thigh.Upper			L.Thigh.Front			L.Thigh.Rear			L.Knee.Lat			L.Knee.Med			L.Shank.Upper			L.Shank.Front			L.Shank.Rear			L.Ankle.Lat			L.Midfoot.Lat			L.Toe.Lat			L.Toe.Tip			L.Toe.Med			L.Ankle.Med			L.Midfoot.Sup			L.Heel			origin1 front left			origin2 front right			origin 3 back right			origin 4 back leftt			
		X1	Y1	Z1	X2	Y2	Z2	X3	Y3	Z3	X4	Y4	Z4	X5	Y5	Z5	X6	Y6	Z6	X7	Y7	Z7	X8	Y8	Z8	X9	Y9	Z9	X10	Y10	Z10	X11	Y11	Z11	X12	Y12	Z12	X13	Y13	Z13	X14	Y14	Z14	X15	Y15	Z15	X16	Y16	Z16	X17	Y17	Z17	X18	Y18	Z18	X19	Y19	Z19	X20	Y20	Z20	X21	Y21	Z21	X22	Y22	Z22	X23	Y23	Z23	X24	Y24	Z24	X25	Y25	Z25	X26	Y26	Z26	X27	Y27	Z27	X28	Y28	Z28	X29	Y29	Z29	X30	Y30	Z30	X31	Y31	Z31	X32	Y32	Z32	X33	Y33	Z33	X34	Y34	Z34	X35	Y35	Z35	X36	Y36	Z36	X37	Y37	Z37	X38	Y38	Z38	X39	Y39	Z39	X40	Y40	Z40	X41	Y41	Z41	X42	Y42	Z42	X43	Y43	Z43	

1	0.000	-647.10046	129.31085	1852.18469	-696.95477	-61.59438	1560.01843	-727.85718	294.10571	1540.17566	-619.53192	113.95488	1435.05542	-611.02081	1.04349	1047.11462	-605.42023	226.64037	1065.28442	-811.51807	101.65249	1042.48840	-663.10547	-61.09289	854.15479	-605.60657	2.92694	801.23590	-698.26489	-47.27792	702.86084	-717.57208	-24.30232	612.13190	-707.87610	83.48711	571.49115	-730.21741	-22.54655	565.84222	-681.02295	22.64160	520.31769	-775.19922	-33.60024	486.55350	-766.67163	-3.90116	205.68762	-664.77716	-65.87130	164.34280	-623.94745	-77.02109	160.96599	-561.03198	-43.91740	163.68559	-602.25690	19.74344	165.36137	-717.35870	79.80853	215.88199	-674.19440	57.11243	156.02148	-794.49799	56.91719	174.72485	-660.05554	286.34439	873.41907	-606.27826	218.20332	821.19263	-710.38763	280.00626	744.76300	-741.28143	255.07210	636.07428	-708.53430	145.81767	572.71399	-744.08740	249.35616	573.60254	-690.63226	207.41795	533.09192	-784.67163	259.13315	500.52655	-771.82886	223.45410	204.25697	-666.82666	299.26291	159.82895	-629.65765	307.38965	161.54327	-561.63959	262.77820	165.79092	-594.82367	223.74072	174.36340	-712.97205	153.52728	217.35446	-675.03705	172.00510	157.90028	-796.62817	173.05183	182.83029	-528.13885	304.07614	146.58961	-517.97467	-72.92146	143.02618	-875.93359	-78.96604	141.13327	-882.57581	295.99649	144.46762	
2	0.020	-647.65247	129.10820	1852.16833	-697.27655	-61.60078	1560.01147	-728.38446	293.92010	1540.19958	-619.78711	114.03358	1435.23071	-611.18304	0.97323	1047.16711	-605.75775	226.58440	1065.27185	-811.65179	101.62109	1042.37061	-663.39099	-60.94839	854.04840	-605.77460	3.05420	801.28027	-698.36963	-47.20060	702.96521	-717.64435	-24.23681	612.09772	-708.30566	83.59297	571.55304	-730.23712	-22.54338	565.83356	-681.11218	22.66085	520.30182	-775.24408	-33.56796	486.47647	-766.68384	-3.92469	205.75980	-664.72931	-65.85327	164.41115	-623.91669	-76.93493	160.81363	-561.01361	-43.88327	163.78152	-602.25482	19.78597	165.37198	-717.39539	79.74493	216.03526	-674.19604	57.10401	156.02094	-794.48267	56.85973	174.71756	-660.38763	285.84305	873.15454	-606.39276	218.34428	821.25000	-710.43536	279.97708	744.70624	-741.39105	255.06190	636.01117	-708.46570	145.88420	572.79700	-744.30133	249.53214	573.79865	-690.65723	207.41321	533.08636	-784.62964	259.27530	500.51022	-771.88428	223.45738	204.28391	-666.86243	299.26233	159.76315	-629.67603	307.40729	161.60728	-561.70593	262.81400	165.85406	-594.80341	223.62260	174.33632	-712.99976	153.40654	217.46918	-675.03149	172.07146	157.89488	-796.68793	172.98781	182.94191	-528.19366	303.98676	146.55278	-518.01611	-72.91241	142.93477	-875.93762	-79.00434	141.16972	-882.56494	296.04297	144.51100	
3	0.040	-648.20697	129.00266	1852.18750	-697.56641	-61.60956	1559.98755	-728.80457	293.79288	1540.19348	-620.11017	114.06029	1435.31848	-611.35461	0.90391	1047.20581	-606.02893	226.52052	1065.30701	-811.77496	101.60686	1042.26550	-663.59485	-60.86773	853.98535	-605.90515	3.14052	801.30774	-698.45386	-47.13403	703.02570	-717.69720	-24.17726	612.05841	-708.53448	83.67445	571.58069	-730.23938	-22.53827	565.82574	-681.17908	22.68251	520.28320	-775.27783	-33.54092	486.41333	-766.67999	-3.94022	205.78993	-664.69720	-65.83687	164.45657	-623.88861	-76.88735	160.72046	-561.00861	-43.86193	163.84019	-602.25415	19.79700	165.37834	-717.41382	79.70484	216.12091	-674.20251	57.10731	156.00920	-794.47729	56.82125	174.71460	-660.66437	285.49243	872.98346	-606.49274	218.44078	821.31927	-710.47937	279.93842	744.65240	-741.49237	255.05727	635.94135	-708.41260	145.90935	572.85425	-744.45453	249.63115	573.94348	-690.69568	207.40453	533.07776	-784.60022	259.33798	500.47372	-771.90588	223.46211	204.28796	-666.88440	299.24976	159.70772	-629.68341	307.41901	161.63196	-561.74274	262.83884	165.88817	-594.80518	223.54555	174.30989	-713.02112	153.33765	217.55508	-675.02014	172.11545	157.89406	-796.71045	172.94939	182.98895	-528.23376	303.93097	146.52315	-518.03064	-72.92972	142.92105	-875.99078	-79.02333	141.22928	-882.54443	296.06259	144.53352	
4	0.060	-648.76801	128.98267	1852.25146	-697.83075	-61.62239	1559.95398	-729.10223	293.74014	1540.16919	-620.50525	114.02943	1435.30298	-611.54199	0.85288	1047.22583	-606.22791	226.44749	1065.39148	-811.90503	101.59528	1042.18945	-663.66046	-60.89685	854.03229	-606.00623	3.18190	801.32056	-698.52582	-47.09290	703.04907	-717.72607	-24.12969	612.01501	-708.51825	83.72907	571.54370	-730.22369	-22.51911	565.80096	-681.20551	22.69571	520.26849	-775.29877	-33.51799	486.36368	-766.66156	-3.94254	205.78003	-664.66925	-65.82787	164.48172	-623.87024	-76.87356	160.68439	-561.00977	-43.85754	163.85397	-602.25513	19.77200	165.37877	-717.43427	79.69298	216.13705	-674.21143	57.11649	155.99300	-794.48065	56.80493	174.71414	-660.81677	285.43240	872.99854	-606.59070	218.46938	821.41144	-710.52246	279.91434	744.61621	-741.58411	255.06599	635.87067	-708.38257	145.90096	572.87762	-744.54370	249.63014	574.01746	-690.73999	207.39218	533.06854	-784.59369	259.31671	500.43558	-771.89960	223.47386	204.28281	-666.89203	299.22171	159.69028	-629.67212	307.41760	161.62387	-561.74927	262.85471	165.89175	-594.83832	223.53996	174.28925	-713.03094	153.32520	217.59351	-675.01398	172.12944	157.88617	-796.68549	172.95023	182.96901	-528.25079	303.92093	146.50993	-518.02246	-72.96858	142.97768	-876.05914	-79.01183	141.29713	-882.52728	296.05817	144.53159	
5	0.080	-649.33722	128.95712	1852.33643	-698.10022	-61.63626	1559.93762	-729.35449	293.73041	1540.15979	-620.91467	113.97462	1435.23633	-611.74988	0.83806	1047.24365	-606.37573	226.37610	1065.49194	-812.07568	101.55643	1042.15234	-663.64825	-60.98933	854.17957	-606.10437	3.19191	801.34155	-698.62115	-47.10254	703.08795	-717.74976	-24.10612	611.96625	-708.34149	83.74443	571.44489	-730.19873	-22.47764	565.74451	-681.18988	22.69743	520.27094	-775.31268	-33.49992	486.32446	-766.63379	-3.93078	205.75589	-664.62286	-65.83568	164.50270	-623.87225	-76.87230	160.67584	-561.00354	-43.86146	163.84694	-602.25739	19.72601	165.37122	-717.48102	79.70822	216.12587	-674.21674	57.11869	155.98647	-794.48700	56.81033	174.71530	-660.84161	285.62540	873.17731	-606.71228	218.44800	821.52045	-710.58173	279.93442	744.62012	-741.66895	255.09262	635.82471	-708.37787	145.89365	572.87183	-744.60376	249.57132	574.03107	-690.76941	207.37891	533.06683	-784.63409	259.27509	500.44757	-771.89203	223.48907	204.29196	-666.88831	299.18616	159.72368	-629.64575	307.39734	161.61220	-561.74207	262.86542	165.88338	-594.89911	223.59909	174.28262	-713.03009	153.33963	217.59261	-675.02771	172.13179	157.85661	-796.62921	172.98627	182.92735	-528.25122	303.94659	146.50941	-518.01318	-72.99091	143.03156	-876.08258	-78.97228	141.32237	-882.53241	296.05362	144.52126	
6	0.100	-649.92194	128.85103	1852.41150	-698.39240	-61.64949	1559.95496	-729.64050	293.72321	1540.17603	-621.27710	113.92643	1435.18213	-611.97437	0.86784	1047.28137	-606.48285	226.32584	1065.57507	-812.29083	101.48485	1042.14771	-663.70239	-61.02971	854.30475	-606.20923	3.17420	801.39355	-698.76410	-47.17246	703.18353	-717.79449	-24.11995	611.91418	-708.15344	83.70420	571.33789	-730.17731	-22.42918	565.67651	-681.15802	22.69191	520.29645	-775.32800	-33.48988	486.29984	-766.59723	-3.91006	205.73395	-664.55743	-65.85617	164.51894	-623.89087	-76.87878	160.68172	-560.98834	-43.86543	163.84204	-602.25726	19.68306	165.35962	-717.54468	79.75255	216.11270	-674.21503	57.11042	155.99437	-794.49799	56.83791	174.71956	-660.82251	285.87131	873.38184	-606.86267	218.43034	821.62671	-710.67816	280.00912	744.68518	-741.74609	255.12970	635.82428	-708.40326	145.90979	572.84491	-744.67102	249.53943	574.02814	-690.77924	207.36565	533.08167	-784.74005	259.26730	500.52481	-771.89044	223.49463	204.30376	-666.87463	299.16684	159.78142	-629.61945	307.36795	161.61021	-561.73761	262.86844	165.87917	-594.97296	223.67871	174.28860	-713.02606	153.35199	217.58411	-675.05487	172.13858	157.81895	-796.57550	173.03250	182.90411	-528.24768	303.99390	146.50888	-518.01556	-72.97524	143.03233	-876.06104	-78.92308	141.28221	-882.55853	296.06000	144.52184	
7	0.120	-650.52063	128.67162	1852.46643	-698.70068	-61.66777	1559.99744	-729.97168	293.70212	1540.19934	-621.56512	113.90136	1435.18335	-612.19788	0.93659	1047.33911	-606.56378	226.30656	1065.62915	-812.51471	101.40614	1042.15576	-663.89917	-60.95203	854.29340	-606.32361	3.12539	801.47180	-698.93311	-47.25669	703.30133	-717.87238	-24.17437	611.87720	-708.07404	83.64279	571.28918	-730.18378	-22.40356	565.64093	-681.14191	22.67251	520.33875	-775.35486	-33.48635	486.29459	-766.55811	-3.89268	205.71750	-664.49994	-65.86810	164.51447	-623.90106	-76.89466	160.69363	-560.96991	-43.87159	163.83542	-602.24872	19.66457	165.36015	-717.59802	79.81535	216.09669	-674.20715	57.09567	156.01308	-794.51874	56.87522	174.72125	-660.85083	286.03177	873.50311	-607.01660	218.45747	821.71771	-710.81622	280.12781	744.81561	-741.81677	255.15784	635.85687	-708.46564	145.95667	572.81274	-744.77356	249.59068	574.05475	-690.79663	207.35411	533.11316	-784.88855	259.28906	500.60190	-771.88428	223.48468	204.28595	-666.85919	299.18759	159.82352	-629.60126	307.35010	161.61891	-561.74347	262.86337	165.88580	-595.02692	223.73265	174.29457	-713.02612	153.35194	217.59010	-675.07489	172.14760	157.80452	-796.55640	173.05147	182.91144	-528.24786	304.04340	146.50403	-518.02814	-72.94854	142.99329	-876.03687	-78.88550	141.21706	-882.58453	296.06702	144.54034	
